<svg width="336" height="48" viewBox="0 0 336 48" fill="none" xmlns="http://www.w3.org/2000/svg">
<rect opacity="0.2" x="0.5" y="0.5" width="335" height="47" rx="3.5" fill="white" stroke="#45668E"/>
<path d="M99.1251 30.128C98.5385 30.128 97.9465 30.1067 97.3491 30.064C96.7518 30.032 96.2291 29.9573 95.7811 29.84V19.072C96.0158 19.0293 96.2665 18.992 96.5331 18.96C96.7998 18.9173 97.0718 18.8853 97.3491 18.864C97.6265 18.8427 97.8985 18.8267 98.1651 18.816C98.4425 18.8053 98.7038 18.8 98.9491 18.8C99.6211 18.8 100.245 18.8533 100.821 18.96C101.397 19.056 101.893 19.2213 102.309 19.456C102.736 19.6907 103.066 20 103.301 20.384C103.536 20.768 103.653 21.2427 103.653 21.808C103.653 22.3307 103.525 22.7787 103.269 23.152C103.024 23.5253 102.677 23.824 102.229 24.048C102.901 24.272 103.397 24.6027 103.717 25.04C104.037 25.4773 104.197 26.032 104.197 26.704C104.197 27.8453 103.781 28.704 102.949 29.28C102.117 29.8453 100.842 30.128 99.1251 30.128ZM97.7651 25.008V28.384C97.9891 28.4053 98.2291 28.4213 98.4851 28.432C98.7411 28.4427 98.9758 28.448 99.1891 28.448C99.6051 28.448 99.9891 28.4213 100.341 28.368C100.704 28.3147 101.013 28.224 101.269 28.096C101.536 27.9573 101.744 27.776 101.893 27.552C102.053 27.328 102.133 27.04 102.133 26.688C102.133 26.0587 101.904 25.6213 101.445 25.376C100.986 25.1307 100.352 25.008 99.5411 25.008H97.7651ZM97.7651 23.424H99.1891C99.9571 23.424 100.56 23.3173 100.997 23.104C101.434 22.88 101.653 22.4853 101.653 21.92C101.653 21.3867 101.424 21.008 100.965 20.784C100.517 20.56 99.9305 20.448 99.2051 20.448C98.8958 20.448 98.6185 20.4533 98.3731 20.464C98.1385 20.4747 97.9358 20.4907 97.7651 20.512V23.424ZM113.769 25.808C113.769 26.4693 113.673 27.072 113.481 27.616C113.289 28.16 113.017 28.624 112.665 29.008C112.313 29.392 111.886 29.6907 111.385 29.904C110.894 30.1173 110.35 30.224 109.753 30.224C109.155 30.224 108.611 30.1173 108.121 29.904C107.63 29.6907 107.209 29.392 106.857 29.008C106.505 28.624 106.227 28.16 106.025 27.616C105.833 27.072 105.737 26.4693 105.737 25.808C105.737 25.1467 105.833 24.5493 106.025 24.016C106.227 23.472 106.505 23.008 106.857 22.624C107.219 22.24 107.646 21.9467 108.137 21.744C108.627 21.5307 109.166 21.424 109.753 21.424C110.339 21.424 110.878 21.5307 111.369 21.744C111.87 21.9467 112.297 22.24 112.649 22.624C113.001 23.008 113.273 23.472 113.465 24.016C113.667 24.5493 113.769 25.1467 113.769 25.808ZM111.785 25.808C111.785 24.976 111.603 24.32 111.241 23.84C110.889 23.3493 110.393 23.104 109.753 23.104C109.113 23.104 108.611 23.3493 108.249 23.84C107.897 24.32 107.721 24.976 107.721 25.808C107.721 26.6507 107.897 27.3173 108.249 27.808C108.611 28.2987 109.113 28.544 109.753 28.544C110.393 28.544 110.889 28.2987 111.241 27.808C111.603 27.3173 111.785 26.6507 111.785 25.808ZM123.091 21.632V30H121.171C121.171 29.392 121.171 28.7893 121.171 28.192C121.182 27.5947 121.187 27.04 121.187 26.528C121.198 26.016 121.203 25.5733 121.203 25.2C121.214 24.816 121.219 24.5333 121.219 24.352C120.899 24.768 120.569 25.2267 120.227 25.728C119.886 26.2293 119.545 26.7307 119.203 27.232C118.873 27.7333 118.558 28.224 118.259 28.704C117.961 29.184 117.699 29.616 117.475 30H115.763V21.632H117.667C117.667 22.2507 117.662 22.8427 117.651 23.408C117.651 23.9627 117.651 24.4693 117.651 24.928C117.651 25.3867 117.646 25.7867 117.635 26.128C117.635 26.4693 117.635 26.7307 117.635 26.912C117.934 26.4533 118.243 25.984 118.563 25.504C118.883 25.0133 119.203 24.5387 119.523 24.08C119.854 23.6107 120.179 23.168 120.499 22.752C120.819 22.336 121.129 21.9627 121.427 21.632H123.091ZM119.443 20.384C119.102 20.384 118.782 20.336 118.483 20.24C118.195 20.144 117.934 20.0053 117.699 19.824C117.465 19.6427 117.273 19.424 117.123 19.168C116.974 18.9013 116.883 18.6027 116.851 18.272L118.243 17.904C118.425 18.6613 118.825 19.04 119.443 19.04C120.073 19.04 120.473 18.6667 120.643 17.92L122.019 18.288C121.977 18.6187 121.881 18.9173 121.731 19.184C121.593 19.44 121.406 19.6587 121.171 19.84C120.947 20.0107 120.686 20.144 120.387 20.24C120.089 20.336 119.774 20.384 119.443 20.384ZM131.864 23.248H129.16V30H127.224V23.248H124.536V21.632H131.864V23.248ZM140.638 21.632V30H138.718C138.718 29.392 138.718 28.7893 138.718 28.192C138.729 27.5947 138.734 27.04 138.734 26.528C138.745 26.016 138.75 25.5733 138.75 25.2C138.761 24.816 138.766 24.5333 138.766 24.352C138.446 24.768 138.115 25.2267 137.774 25.728C137.433 26.2293 137.091 26.7307 136.75 27.232C136.419 27.7333 136.105 28.224 135.806 28.704C135.507 29.184 135.246 29.616 135.022 30H133.31V21.632H135.214C135.214 22.2507 135.209 22.8427 135.198 23.408C135.198 23.9627 135.198 24.4693 135.198 24.928C135.198 25.3867 135.193 25.7867 135.182 26.128C135.182 26.4693 135.182 26.7307 135.182 26.912C135.481 26.4533 135.79 25.984 136.11 25.504C136.43 25.0133 136.75 24.5387 137.07 24.08C137.401 23.6107 137.726 23.168 138.046 22.752C138.366 22.336 138.675 21.9627 138.974 21.632H140.638ZM148.233 24.224C148.233 24.736 148.377 25.0987 148.665 25.312C148.964 25.5147 149.369 25.616 149.881 25.616C150.127 25.616 150.367 25.6053 150.601 25.584C150.847 25.552 151.06 25.5147 151.241 25.472V21.632H153.177V30H151.241V27.008C151.049 27.04 150.799 27.0827 150.489 27.136C150.18 27.1787 149.903 27.2 149.657 27.2C149.156 27.2 148.697 27.152 148.281 27.056C147.876 26.96 147.524 26.8 147.225 26.576C146.927 26.3413 146.697 26.0373 146.537 25.664C146.377 25.28 146.297 24.8053 146.297 24.24V21.632H148.233V24.224ZM155.174 25.856C155.174 25.12 155.281 24.4747 155.494 23.92C155.718 23.3653 156.012 22.9067 156.374 22.544C156.737 22.1707 157.153 21.8933 157.622 21.712C158.092 21.52 158.572 21.424 159.062 21.424C160.214 21.424 161.11 21.7813 161.75 22.496C162.401 23.2107 162.726 24.2773 162.726 25.696C162.726 25.8027 162.721 25.9253 162.71 26.064C162.71 26.192 162.705 26.3093 162.694 26.416H157.174C157.228 27.088 157.462 27.6107 157.878 27.984C158.305 28.3467 158.918 28.528 159.718 28.528C160.188 28.528 160.614 28.4853 160.998 28.4C161.393 28.3147 161.702 28.224 161.926 28.128L162.182 29.712C162.076 29.7653 161.926 29.824 161.734 29.888C161.553 29.9413 161.34 29.9893 161.094 30.032C160.86 30.0853 160.604 30.128 160.326 30.16C160.049 30.192 159.766 30.208 159.478 30.208C158.742 30.208 158.102 30.1013 157.558 29.888C157.014 29.664 156.566 29.36 156.214 28.976C155.862 28.5813 155.601 28.1227 155.43 27.6C155.26 27.0667 155.174 26.4853 155.174 25.856ZM160.79 24.992C160.79 24.7253 160.753 24.4747 160.678 24.24C160.604 23.9947 160.492 23.7867 160.342 23.616C160.204 23.4347 160.028 23.296 159.814 23.2C159.612 23.0933 159.366 23.04 159.078 23.04C158.78 23.04 158.518 23.0987 158.294 23.216C158.07 23.3227 157.878 23.4667 157.718 23.648C157.569 23.8293 157.452 24.0373 157.366 24.272C157.281 24.5067 157.222 24.7467 157.19 24.992H160.79ZM170.331 25.856C170.331 24.992 170.134 24.32 169.739 23.84C169.355 23.36 168.731 23.12 167.867 23.12C167.686 23.12 167.494 23.1307 167.291 23.152C167.099 23.1627 166.907 23.1947 166.715 23.248V28.032C166.886 28.1493 167.11 28.2613 167.387 28.368C167.675 28.464 167.979 28.512 168.299 28.512C169.003 28.512 169.515 28.272 169.835 27.792C170.166 27.312 170.331 26.6667 170.331 25.856ZM172.315 25.824C172.315 26.464 172.23 27.0507 172.059 27.584C171.899 28.1173 171.664 28.576 171.355 28.96C171.046 29.344 170.656 29.6427 170.187 29.856C169.728 30.0693 169.206 30.176 168.619 30.176C168.224 30.176 167.862 30.128 167.531 30.032C167.2 29.936 166.928 29.8293 166.715 29.712V32.96H164.779V21.904C165.174 21.7973 165.659 21.696 166.235 21.6C166.811 21.504 167.419 21.456 168.059 21.456C168.72 21.456 169.312 21.5573 169.835 21.76C170.358 21.9627 170.8 22.256 171.163 22.64C171.536 23.0133 171.819 23.472 172.011 24.016C172.214 24.5493 172.315 25.152 172.315 25.824ZM173.846 25.856C173.846 25.12 173.953 24.4747 174.166 23.92C174.39 23.3653 174.683 22.9067 175.046 22.544C175.409 22.1707 175.825 21.8933 176.294 21.712C176.763 21.52 177.243 21.424 177.734 21.424C178.886 21.424 179.782 21.7813 180.422 22.496C181.073 23.2107 181.398 24.2773 181.398 25.696C181.398 25.8027 181.393 25.9253 181.382 26.064C181.382 26.192 181.377 26.3093 181.366 26.416H175.846C175.899 27.088 176.134 27.6107 176.55 27.984C176.977 28.3467 177.59 28.528 178.39 28.528C178.859 28.528 179.286 28.4853 179.67 28.4C180.065 28.3147 180.374 28.224 180.598 28.128L180.854 29.712C180.747 29.7653 180.598 29.824 180.406 29.888C180.225 29.9413 180.011 29.9893 179.766 30.032C179.531 30.0853 179.275 30.128 178.998 30.16C178.721 30.192 178.438 30.208 178.15 30.208C177.414 30.208 176.774 30.1013 176.23 29.888C175.686 29.664 175.238 29.36 174.886 28.976C174.534 28.5813 174.273 28.1227 174.102 27.6C173.931 27.0667 173.846 26.4853 173.846 25.856ZM179.462 24.992C179.462 24.7253 179.425 24.4747 179.35 24.24C179.275 23.9947 179.163 23.7867 179.014 23.616C178.875 23.4347 178.699 23.296 178.486 23.2C178.283 23.0933 178.038 23.04 177.75 23.04C177.451 23.04 177.19 23.0987 176.966 23.216C176.742 23.3227 176.55 23.4667 176.39 23.648C176.241 23.8293 176.123 24.0373 176.038 24.272C175.953 24.5067 175.894 24.7467 175.862 24.992H179.462ZM182.927 21.888C183.065 21.8347 183.236 21.7813 183.439 21.728C183.641 21.6747 183.86 21.6267 184.095 21.584C184.329 21.5413 184.575 21.5093 184.831 21.488C185.097 21.456 185.364 21.44 185.631 21.44C186.089 21.44 186.527 21.4827 186.943 21.568C187.359 21.6533 187.721 21.792 188.031 21.984C188.34 22.176 188.585 22.4213 188.767 22.72C188.959 23.0187 189.055 23.376 189.055 23.792C189.055 24.24 188.932 24.6187 188.687 24.928C188.441 25.2373 188.159 25.4667 187.839 25.616C188.319 25.7973 188.687 26.064 188.943 26.416C189.199 26.768 189.327 27.216 189.327 27.76C189.327 28.1973 189.231 28.5707 189.039 28.88C188.857 29.1893 188.601 29.4453 188.271 29.648C187.951 29.84 187.572 29.9787 187.135 30.064C186.697 30.16 186.223 30.208 185.711 30.208C185.092 30.208 184.516 30.1547 183.983 30.048C183.449 29.952 183.028 29.8347 182.719 29.696L183.055 28.128C183.257 28.2133 183.583 28.3147 184.031 28.432C184.479 28.5387 185.007 28.592 185.615 28.592C186.788 28.592 187.375 28.2507 187.375 27.568C187.375 27.3227 187.321 27.1253 187.215 26.976C187.108 26.8267 186.975 26.7147 186.815 26.64C186.655 26.5547 186.473 26.5013 186.271 26.48C186.068 26.448 185.871 26.432 185.679 26.432H184.079V24.992H185.663C186.057 24.992 186.393 24.9227 186.671 24.784C186.959 24.6347 187.103 24.3787 187.103 24.016C187.103 23.7173 186.964 23.4827 186.687 23.312C186.42 23.1307 186.041 23.04 185.551 23.04C185.337 23.04 185.119 23.056 184.895 23.088C184.671 23.1093 184.452 23.1413 184.239 23.184C184.036 23.2267 183.849 23.2747 183.679 23.328C183.508 23.3707 183.375 23.4133 183.279 23.456L182.927 21.888ZM198.469 30.128C197.882 30.128 197.29 30.1067 196.693 30.064C196.096 30.032 195.573 29.9573 195.125 29.84V19.072C195.36 19.0293 195.61 18.992 195.877 18.96C196.144 18.9173 196.416 18.8853 196.693 18.864C196.97 18.8427 197.242 18.8267 197.509 18.816C197.786 18.8053 198.048 18.8 198.293 18.8C198.965 18.8 199.589 18.8533 200.165 18.96C200.741 19.056 201.237 19.2213 201.653 19.456C202.08 19.6907 202.41 20 202.645 20.384C202.88 20.768 202.997 21.2427 202.997 21.808C202.997 22.3307 202.869 22.7787 202.613 23.152C202.368 23.5253 202.021 23.824 201.573 24.048C202.245 24.272 202.741 24.6027 203.061 25.04C203.381 25.4773 203.541 26.032 203.541 26.704C203.541 27.8453 203.125 28.704 202.293 29.28C201.461 29.8453 200.186 30.128 198.469 30.128ZM197.109 25.008V28.384C197.333 28.4053 197.573 28.4213 197.829 28.432C198.085 28.4427 198.32 28.448 198.533 28.448C198.949 28.448 199.333 28.4213 199.685 28.368C200.048 28.3147 200.357 28.224 200.613 28.096C200.88 27.9573 201.088 27.776 201.237 27.552C201.397 27.328 201.477 27.04 201.477 26.688C201.477 26.0587 201.248 25.6213 200.789 25.376C200.33 25.1307 199.696 25.008 198.885 25.008H197.109ZM197.109 23.424H198.533C199.301 23.424 199.904 23.3173 200.341 23.104C200.778 22.88 200.997 22.4853 200.997 21.92C200.997 21.3867 200.768 21.008 200.309 20.784C199.861 20.56 199.274 20.448 198.549 20.448C198.24 20.448 197.962 20.4533 197.717 20.464C197.482 20.4747 197.28 20.4907 197.109 20.512V23.424ZM212.265 30C211.987 29.5733 211.667 29.1253 211.305 28.656C210.942 28.1867 210.558 27.7333 210.153 27.296C209.758 26.8587 209.347 26.4427 208.921 26.048C208.494 25.6533 208.073 25.312 207.657 25.024V30H205.641V18.912H207.657V23.488C208.009 23.136 208.377 22.7627 208.761 22.368C209.145 21.9627 209.523 21.5573 209.897 21.152C210.281 20.736 210.643 20.336 210.985 19.952C211.326 19.568 211.635 19.2213 211.913 18.912H214.329C213.977 19.3173 213.603 19.7387 213.209 20.176C212.814 20.6133 212.409 21.056 211.993 21.504C211.577 21.9413 211.155 22.3787 210.729 22.816C210.313 23.2533 209.902 23.6693 209.497 24.064C209.945 24.4053 210.398 24.8053 210.857 25.264C211.326 25.712 211.785 26.1973 212.233 26.72C212.681 27.232 213.107 27.7707 213.513 28.336C213.929 28.8907 214.307 29.4453 214.649 30H212.265ZM223.159 25.808C223.159 26.4693 223.063 27.072 222.871 27.616C222.679 28.16 222.407 28.624 222.055 29.008C221.703 29.392 221.277 29.6907 220.775 29.904C220.285 30.1173 219.741 30.224 219.143 30.224C218.546 30.224 218.002 30.1173 217.511 29.904C217.021 29.6907 216.599 29.392 216.247 29.008C215.895 28.624 215.618 28.16 215.415 27.616C215.223 27.072 215.127 26.4693 215.127 25.808C215.127 25.1467 215.223 24.5493 215.415 24.016C215.618 23.472 215.895 23.008 216.247 22.624C216.61 22.24 217.037 21.9467 217.527 21.744C218.018 21.5307 218.557 21.424 219.143 21.424C219.73 21.424 220.269 21.5307 220.759 21.744C221.261 21.9467 221.687 22.24 222.039 22.624C222.391 23.008 222.663 23.472 222.855 24.016C223.058 24.5493 223.159 25.1467 223.159 25.808ZM221.175 25.808C221.175 24.976 220.994 24.32 220.631 23.84C220.279 23.3493 219.783 23.104 219.143 23.104C218.503 23.104 218.002 23.3493 217.639 23.84C217.287 24.32 217.111 24.976 217.111 25.808C217.111 26.6507 217.287 27.3173 217.639 27.808C218.002 28.2987 218.503 28.544 219.143 28.544C219.783 28.544 220.279 28.2987 220.631 27.808C220.994 27.3173 221.175 26.6507 221.175 25.808ZM232.178 30H230.242V26.496H227.09V30H225.154V21.632H227.09V24.896H230.242V21.632H232.178V30ZM240.942 23.248H238.238V30H236.302V23.248H233.614V21.632H240.942V23.248ZM245.332 28.64C245.93 28.64 246.383 28.608 246.692 28.544V26.4C246.586 26.368 246.431 26.336 246.228 26.304C246.026 26.272 245.802 26.256 245.556 26.256C245.343 26.256 245.124 26.272 244.9 26.304C244.687 26.336 244.49 26.3947 244.308 26.48C244.138 26.5653 243.999 26.688 243.892 26.848C243.786 26.9973 243.732 27.1893 243.732 27.424C243.732 27.8827 243.876 28.2027 244.164 28.384C244.452 28.5547 244.842 28.64 245.332 28.64ZM245.172 21.424C245.812 21.424 246.351 21.504 246.788 21.664C247.226 21.824 247.572 22.048 247.828 22.336C248.095 22.624 248.282 22.976 248.388 23.392C248.506 23.7973 248.564 24.2453 248.564 24.736V29.808C248.266 29.872 247.812 29.9467 247.204 30.032C246.607 30.128 245.93 30.176 245.172 30.176C244.671 30.176 244.212 30.128 243.796 30.032C243.38 29.936 243.023 29.7813 242.724 29.568C242.436 29.3547 242.207 29.0773 242.036 28.736C241.876 28.3947 241.796 27.9733 241.796 27.472C241.796 26.992 241.887 26.5867 242.068 26.256C242.26 25.9253 242.516 25.6587 242.836 25.456C243.156 25.2427 243.524 25.0933 243.94 25.008C244.367 24.912 244.81 24.864 245.268 24.864C245.482 24.864 245.706 24.88 245.94 24.912C246.175 24.9333 246.426 24.976 246.692 25.04V24.72C246.692 24.496 246.666 24.2827 246.612 24.08C246.559 23.8773 246.463 23.7013 246.324 23.552C246.196 23.392 246.02 23.2693 245.796 23.184C245.583 23.0987 245.311 23.056 244.98 23.056C244.532 23.056 244.122 23.088 243.748 23.152C243.375 23.216 243.071 23.2907 242.836 23.376L242.596 21.808C242.842 21.7227 243.199 21.6373 243.668 21.552C244.138 21.4667 244.639 21.424 245.172 21.424ZM252.871 24.992C253.116 24.7467 253.383 24.4747 253.671 24.176C253.959 23.8667 254.242 23.5573 254.519 23.248C254.807 22.9387 255.079 22.6453 255.335 22.368C255.591 22.08 255.804 21.8347 255.975 21.632H258.247C258.012 21.9093 257.74 22.2133 257.431 22.544C257.132 22.8747 256.818 23.216 256.487 23.568C256.167 23.9093 255.847 24.2453 255.527 24.576C255.218 24.896 254.935 25.184 254.679 25.44C255.01 25.7173 255.351 26.0427 255.703 26.416C256.066 26.7787 256.418 27.168 256.759 27.584C257.111 27.9893 257.436 28.4053 257.735 28.832C258.034 29.248 258.284 29.6373 258.487 30H256.247C256.044 29.68 255.804 29.344 255.527 28.992C255.26 28.64 254.978 28.2987 254.679 27.968C254.38 27.6267 254.076 27.3067 253.767 27.008C253.458 26.7093 253.159 26.4533 252.871 26.24V30H250.935V21.632H252.871V24.992ZM266.192 23.248H263.488V30H261.552V23.248H258.864V21.632H266.192V23.248ZM267.174 25.856C267.174 25.12 267.281 24.4747 267.494 23.92C267.718 23.3653 268.012 22.9067 268.374 22.544C268.737 22.1707 269.153 21.8933 269.622 21.712C270.092 21.52 270.572 21.424 271.062 21.424C272.214 21.424 273.11 21.7813 273.75 22.496C274.401 23.2107 274.726 24.2773 274.726 25.696C274.726 25.8027 274.721 25.9253 274.71 26.064C274.71 26.192 274.705 26.3093 274.694 26.416H269.174C269.228 27.088 269.462 27.6107 269.878 27.984C270.305 28.3467 270.918 28.528 271.718 28.528C272.188 28.528 272.614 28.4853 272.998 28.4C273.393 28.3147 273.702 28.224 273.926 28.128L274.182 29.712C274.076 29.7653 273.926 29.824 273.734 29.888C273.553 29.9413 273.34 29.9893 273.094 30.032C272.86 30.0853 272.604 30.128 272.326 30.16C272.049 30.192 271.766 30.208 271.478 30.208C270.742 30.208 270.102 30.1013 269.558 29.888C269.014 29.664 268.566 29.36 268.214 28.976C267.862 28.5813 267.601 28.1227 267.43 27.6C267.26 27.0667 267.174 26.4853 267.174 25.856ZM272.79 24.992C272.79 24.7253 272.753 24.4747 272.678 24.24C272.604 23.9947 272.492 23.7867 272.342 23.616C272.204 23.4347 272.028 23.296 271.814 23.2C271.612 23.0933 271.366 23.04 271.078 23.04C270.78 23.04 270.518 23.0987 270.294 23.216C270.07 23.3227 269.878 23.4667 269.718 23.648C269.569 23.8293 269.452 24.0373 269.366 24.272C269.281 24.5067 269.222 24.7467 269.19 24.992H272.79Z" fill="#45668E"/>
<g clip-path="url(#clip0)">
<path d="M73.162 30.994C73.771 30.994 74.02 30.588 74.013 30.079C73.982 28.162 74.727 27.13 76.072 28.475C77.56 29.963 77.868 30.994 79.675 30.994H82.875C83.683 30.994 84.001 30.734 84.001 30.326C84.001 29.463 82.58 27.94 81.376 26.822C79.69 25.257 79.611 25.22 81.063 23.336C82.864 20.997 85.22 18 83.136 18H79.155C78.383 18 78.327 18.435 78.052 19.083C77.057 21.43 75.166 24.47 74.448 24.005C73.697 23.52 74.041 21.599 74.098 18.744C74.113 17.99 74.109 17.473 72.957 17.205C72.328 17.06 71.716 17 71.148 17C68.875 17 67.307 17.953 68.198 18.119C69.769 18.412 69.618 21.811 69.252 23.279C68.614 25.835 66.216 21.255 65.217 18.974C64.976 18.426 64.902 18 64.042 18H60.787C60.295 18 60 18.16 60 18.516C60 19.118 62.96 25.236 65.786 28.286C68.542 31.261 71.266 30.994 73.162 30.994Z" fill="#45668E"/>
</g>
<defs>
<clipPath id="clip0">
<rect width="24" height="24" fill="white" transform="translate(60 12)"/>
</clipPath>
</defs>
</svg>
